<?xml version="1.0" encoding="utf-8"?>
<svg version="1.1" id="Layer_1" x="0px" y="0px" viewBox="0 0 203.35 203.83" style="enable-background:new 0 0 485.4 204;" width="0px" xmlns="http://www.w3.org/2000/svg" xmlns:bx="https://boxy-svg.com">
  <defs>
    <bx:grid x="0" y="0" width="101.675" height="101.915"/>
  </defs>
  <style type="text/css">
	.st0{fill:#ED1C24;}
</style>
  <path class="st0" d="M 74.658 47.815 C 74.658 47.815 5.158 90.215 70.658 132.315 C 83.258 140.515 128.958 163.315 127.658 184.415 C 127.658 184.415 155.358 143.415 114.858 117.615 C 73.258 91.215 62.858 63.015 74.658 47.815 Z"/>
  <path class="st0" d="M 50.458 128.815 C 50.458 128.815 25.658 166.415 74.458 174.115 C 79.258 174.715 114.558 178.415 123.758 190.015 C 123.758 190.015 122.958 170.015 94.158 158.215 C 65.458 146.415 53.658 143.515 50.458 128.815 Z"/>
  <path class="st0" d="M 146.458 89.315 C 116.658 58.115 108.358 38.815 121.158 13.815 C 121.158 13.815 32.258 48.015 120.058 108.715 C 151.458 130.415 146.258 152.615 146.258 153.415 C 151.158 148.315 176.258 120.515 146.458 89.315 Z"/>
</svg>